# xmcd
#
# Track frame offsets: 
#        150
#        17692
#        35027
#        58277
#        82647
#        98519
#        130023
#        151127
#        168837
#        195478
#        215699
#        242624
#        261803
#        278066
#        296048
#        320884
#        335408
#
# Disc length: 4791 seconds
#
# Revision: 1
# Processed by: cddbd v1.5.2PL0 Copyright (c) Steve Scherf et al.
# Submitted via: ExactAudioCopy v1.3
#
DISCID=eb12b511
DTITLE=Various Artist - Akella Presents - vol.55 - Rockin' Blues  CD1
DYEAR=2015
DGENRE=Rockin' Blues
TTITLE0=Laurence Jones - Tomorrow Is Another Day
TTITLE1=Red Rooster - Married to the Blues
TTITLE2=Eelco Gelling Band - Stingin' Eyes
TTITLE3=Howard 'Guitar' Luedtke and Blue Max - Your Love Is Hard On Me
TTITLE4=Lazer Lloyd - Burning Thunder
TTITLE5=The Five Dollar Sugar - Dead Mans Shoes
TTITLE6=Altered Five Blues Band - Who's Your Lover
TTITLE7=AJ And The Wildgrooves - More To Lose
TTITLE8=Bugs Henderson and Lance Lopez - Hit The Bricks
TTITLE9=Robin Trower - Dreams That Shone Like Diamonds
TTITLE10=Pepe Ahlqvist and The Rolling Tumbleweed - Crawlin' Inside
TTITLE11=The Cadillac Jack Revue - Texas
TTITLE12=Willie May - Brand New Story
TTITLE13=Dean Hall - Ice House Blues
TTITLE14=Chris Cobb Band - Drownin'
TTITLE15=Darrell Mansfield - Back Slider
TTITLE16=Mark May and The Agitators - Mercury Blues
EXTD=
EXTT0=
EXTT1=
EXTT2=
EXTT3=
EXTT4=
EXTT5=
EXTT6=
EXTT7=
EXTT8=
EXTT9=
EXTT10=
EXTT11=
EXTT12=
EXTT13=
EXTT14=
EXTT15=
EXTT16=
PLAYORDER=
